<?xml version="1.0" encoding="utf-8"?>
<!-- Generator: Adobe Illustrator 14.0.0, SVG Export Plug-In  -->
<!DOCTYPE svg PUBLIC "-//W3C//DTD SVG 1.1//EN" "http://www.w3.org/Graphics/SVG/1.1/DTD/svg11.dtd" [
	<!ENTITY ns_flows "http://ns.adobe.com/Flows/1.0/">
]>
<svg version="1.1"
	 xmlns="http://www.w3.org/2000/svg" xmlns:xlink="http://www.w3.org/1999/xlink" xmlns:a="http://ns.adobe.com/AdobeSVGViewerExtensions/3.0/"
	 x="0px" y="0px" width="156px" height="148px" viewBox="-3.314 -2.587 156 148" enable-background="new -3.314 -2.587 156 148"
	 xml:space="preserve">
<defs>
</defs>
<path fill="#2198DB" d="M35.467,68.932c-11.631,12.537-10.884,32.236,1.683,43.852c12.542,11.633,32.208,10.887,43.855-1.658
	c0.151-0.15,0.266-0.344,0.414-0.525l2.143,1.979c-0.148,0.194-0.271,0.371-0.414,0.535c-12.727,13.751-34.275,14.568-48.004,1.818
	C21.41,102.199,20.598,80.68,33.329,66.92c0.145-0.155,0.312-0.287,0.49-0.451l2.139,1.98
	C35.807,68.634,35.634,68.743,35.467,68.932L35.467,68.932z"/>
<path fill="#2198DB" d="M90.327,119.762c-16.399,17.691-44.151,18.744-61.844,2.344c-17.661-16.4-18.739-44.156-2.34-61.818
	c0.172-0.164,0.317-0.316,0.492-0.471l-2.162-1.988c-0.15,0.162-0.323,0.32-0.469,0.453C6.5,77.163,7.626,106.77,26.505,124.268
	c18.878,17.502,48.459,16.384,65.964-2.494c0.146-0.159,0.293-0.336,0.438-0.499l-2.141-2.005
	C90.625,119.42,90.475,119.614,90.327,119.762L90.327,119.762z"/>
<path fill="#2198DB" d="M46.545,78.272l-2.167-1.99c-0.149,0.16-0.314,0.295-0.468,0.455c-7.338,7.924-6.847,20.306,1.05,27.625
	c7.89,7.342,20.308,6.875,27.623-1.043c0.151-0.154,0.268-0.344,0.417-0.498l-2.142-2.008c-0.141,0.18-0.264,0.361-0.41,0.525
	c-6.247,6.709-16.776,7.105-23.507,0.892c-6.711-6.241-7.109-16.782-0.893-23.487C46.196,78.567,46.372,78.424,46.545,78.272
	L46.545,78.272z"/>
<path fill="none" stroke="#2198DB" stroke-width="2.0036" d="M97.562,73.332l-7.172,7.712l-3.283-3.039l17.068-18.396
	c1.349-1.457,0.999-3.991-0.8-5.656L90.806,42.299c-1.793-1.667-4.319-1.824-5.694-0.372L68.051,60.336l-3.272-3.058l7.144-7.716
	L19.986,1.416l-18.57,20.04l51.938,48.176l7.143-7.736l3.298,3.059l-5.165,5.572c-1.367,1.457-1.019,3.984,0.802,5.652l4.302,3.993
	l-6.997,7.548l-3.385-3.133c-0.172,0.154-0.342,0.27-0.516,0.447c-2.761,2.99-2.593,7.637,0.396,10.41
	c3.01,2.761,7.666,2.582,10.405-0.395c0.172-0.166,0.263-0.371,0.411-0.551l-3.381-3.131l7.002-7.555l4.33,4.012
	c1.798,1.668,4.323,1.83,5.669,0.371l5.188-5.596l3.278,3.06l-7.176,7.716l51.959,48.137l18.583-20.033L97.562,73.332z"/>
<path fill="#FFFFFF" stroke="#2198DB" stroke-width="1.3357" d="M8.078,14.348c-0.283,4.809,0.27,9.668,1.63,14.138"/>
<path fill="#FFFFFF" stroke="#2198DB" stroke-width="1.3357" d="M15.423,6.426c0.858,9.506,1.569,18.747,2.161,28.315"/>
<path fill="#FFFFFF" stroke="#2198DB" stroke-width="1.3357" d="M22.092,9.45c1.406,11.321,2.17,20.791,2.324,32.328"/>
<path fill="#FFFFFF" stroke="#2198DB" stroke-width="1.3357" d="M32.107,14.53c0.918,13.47,1.617,22.264,0.991,35.584"/>
<path fill="#FFFFFF" stroke="#2198DB" stroke-width="1.3357" d="M40.158,25.147c0.396,10.542,0.794,21.085,1.194,31.627"/>
<path fill="#FFFFFF" stroke="#2198DB" stroke-width="1.3357" d="M46.868,29.26c1.872,10.99,2.33,23.395,1.316,34.9"/>
<path fill="#FFFFFF" stroke="#2198DB" stroke-width="1.3357" d="M58.097,37.573c-0.968,8.07-1.02,16.801-0.141,25.127"/>
<path fill="#FFFFFF" stroke="#2198DB" stroke-width="1.3357" d="M64.891,43.874c-0.166,4.092-0.368,7.947-0.638,12.035"/>
<path fill="#FFFFFF" stroke="#2198DB" stroke-width="1.3357" d="M84.115,90.105c1.089,4.595,1.371,4.592,1.371,9.435"/>
<path fill="#FFFFFF" stroke="#2198DB" stroke-width="1.3357" d="M91.536,84.362c-0.196,7.572,0.555,17.321,1.018,20.293"/>
<path fill="#FFFFFF" stroke="#2198DB" stroke-width="1.3357" d="M97.841,77.571c0.425,10.529,0.855,21.861,1.239,32.715"/>
<path fill="#FFFFFF" stroke="#2198DB" stroke-width="1.3357" d="M104.626,79.749c0.525,12.027,0.821,23.865,1.244,36.834"/>
<path fill="#FFFFFF" stroke="#2198DB" stroke-width="1.3357" d="M117.98,92.805c0.434,11.266-0.8,22.945-0.375,34.211"/>
<path fill="#FFFFFF" stroke="#2198DB" stroke-width="1.3357" d="M125.399,99.631c0.362,11.758,0,21.365,0.891,36.5"/>
<path fill="#FFFFFF" stroke="#2198DB" stroke-width="1.3357" d="M133.888,106.784c0.163,9.533,1.303,18.664,1.897,28.755"/>
<path fill="#FFFFFF" stroke="#2198DB" stroke-width="1.3357" d="M112.046,87.168c-0.511,12.013-0.271,23.646-0.264,35.885"/>
<path fill="#FFFFFF" stroke="#2198DB" stroke-width="1.3357" d="M52.754,86.624c0.045,1.232,0.092,2.461,0.141,3.695"/>
<path fill="#FFFFFF" stroke="#2198DB" stroke-width="1.3357" d="M54.222,87.391c0.068,1.742,0.415,3.475,1.011,5.096"/>
<path fill="#FFFFFF" stroke="#2198DB" stroke-width="1.3357" d="M54.271,94.168c2.139,1.045,4.789,1.257,6.805,0.563"/>
<path fill="#FFFFFF" stroke="#2198DB" stroke-width="1.3357" d="M56.9,93.042c0.871,0.231,1.921,0.338,2.887,0.301"/>
<path fill="#FFFFFF" stroke="#2198DB" stroke-width="1.3357" d="M71.979,84.462c1.424,1.853,3.405,2.405,5.399,1.438"/>
<path fill="#FFFFFF" stroke="#2198DB" stroke-width="1.3357" d="M86.082,44.699c0.808-1.265,2.24-1.479,3.669-0.756"/>
<path fill="#FFFFFF" stroke="#2198DB" stroke-width="1.3357" d="M101.083,55.629c0.614,1.211,0.681,2.621,0.137,3.691"/>
<path fill="#FFFFFF" stroke="#2198DB" stroke-width="1.3357" d="M60.816,71.739c-0.682,1.318-0.498,2.668,0.547,3.672"/>
<path fill="#FFFFFF" stroke="#2198DB" stroke-width="1.3357" d="M79.053,59.026c0.364,4.732,0.72,9.631,1.318,14.387"/>
<path fill="#FFFFFF" stroke="#2198DB" stroke-width="1.3357" d="M81.128,60.651c0.221,3.359,0.501,6.719,0.848,10.063"/>
<path fill="#FFFFFF" stroke="#2198DB" stroke-width="1.3357" d="M67.827,70.163c0.396,2.418,0.757,4.949,1.057,7.411"/>
<path fill="#FFFFFF" stroke="#2198DB" stroke-width="1.3357" d="M78.207,81.758c0.367,0.438,0.734,1.182,0.892,1.818"/>
<path fill="#FFFFFF" stroke="#2198DB" stroke-width="1.3357" d="M79.365,79.86c0.283,0.392,1.073,1.921,1.339,2.627"/>
<path fill="#FFFFFF" stroke="#2198DB" stroke-width="1.3357" d="M80.967,78.561c0.525,0.457,0.907,1.099,1.095,1.814"/>
<path fill="#FFFFFF" stroke="#2198DB" stroke-width="1.3357" d="M82.963,76.84c0.369,0.744,0.741,1.498,1.113,2.221"/>
<path fill="#FFFFFF" stroke="#2198DB" stroke-width="1.3357" d="M85.153,74.694c0.197,0.721,0.617,1.486,1.1,2.018"/>
<path fill="#FFFFFF" stroke="#2198DB" stroke-width="1.3357" d="M87.097,71.737c0.29,0.736,0.649,1.387,1.105,2.015"/>
<path fill="#FFFFFF" stroke="#2198DB" stroke-width="1.3357" d="M89.061,69.187c0.314,0.322,0.996,1.435,1.319,2.216"/>
<path fill="#FFFFFF" stroke="#2198DB" stroke-width="1.3357" d="M91.272,67.663c0.509,0.537,1.352,1.682,1.515,2.001"/>
<path fill="#FFFFFF" stroke="#2198DB" stroke-width="1.3357" d="M93.279,66.348c0.583,0.531,1.144,1.274,1.521,2.004"/>
<path fill="#FFFFFF" stroke="#2198DB" stroke-width="1.3357" d="M95.265,64.211c0.309,0.578,0.669,1.109,1.089,1.608"/>
<path fill="#FFFFFF" stroke="#2198DB" stroke-width="1.3357" d="M96.825,62.092c0.385,0.745,0.798,1.39,1.319,2.012"/>
<path fill="#FFFFFF" stroke="#2198DB" stroke-width="1.3357" d="M63.466,68.098c0.336,0.498,0.554,1.031,0.68,1.619"/>
<path fill="#FFFFFF" stroke="#2198DB" stroke-width="1.3357" d="M65.231,65.762c0.373,0.713,0.808,1.572,1.116,2.225"/>
<path fill="#FFFFFF" stroke="#2198DB" stroke-width="1.3357" d="M66.816,64.052c0.447,0.519,1.007,1.383,1.31,2.011"/>
<path fill="#FFFFFF" stroke="#2198DB" stroke-width="1.3357" d="M68.993,61.706c0.507,0.394,1.033,1.139,1.307,1.804"/>
<path fill="#FFFFFF" stroke="#2198DB" stroke-width="1.3357" d="M71.377,59.346c0.447,0.544,0.896,1.295,1.101,1.812"/>
<path fill="#FFFFFF" stroke="#2198DB" stroke-width="1.3357" d="M73.77,57.196c0.577,0.356,1.1,1.152,1.311,2.009"/>
<path fill="#FFFFFF" stroke="#2198DB" stroke-width="1.3357" d="M76.742,53.993c0.13,0.721,0.495,1.527,0.901,2.026"/>
<path fill="#FFFFFF" stroke="#2198DB" stroke-width="1.3357" d="M78.73,52.064c0.314,0.745,0.683,1.479,1.11,2.226"/>
<path fill="#FFFFFF" stroke="#2198DB" stroke-width="1.3357" d="M80.123,50.772c0.599,0.615,1.132,1.398,1.526,2.211"/>
<path fill="#FFFFFF" stroke="#2198DB" stroke-width="1.3357" d="M81.506,49.276c0.395,0.637,1.002,1.438,1.522,2.006"/>
<path fill="#FFFFFF" stroke="#2198DB" stroke-width="1.3357" d="M83.275,46.946c0.488,0.619,0.935,1.305,1.315,2.012"/>
</svg>
