<?xml version="1.0" encoding="utf-8"?>
<!-- Generator: Adobe Illustrator 14.0.0, SVG Export Plug-In  -->
<!DOCTYPE svg PUBLIC "-//W3C//DTD SVG 1.1//EN" "http://www.w3.org/Graphics/SVG/1.1/DTD/svg11.dtd" [
	<!ENTITY ns_flows "http://ns.adobe.com/Flows/1.0/">
]>
<svg version="1.1"
	 xmlns="http://www.w3.org/2000/svg" xmlns:xlink="http://www.w3.org/1999/xlink" xmlns:a="http://ns.adobe.com/AdobeSVGViewerExtensions/3.0/"
	 x="0px" y="0px" width="110px" height="75px" viewBox="-2.791 -10.716 110 75" enable-background="new -2.791 -10.716 110 75"
	 xml:space="preserve">
<defs>
</defs>
<polygon fill="none" stroke="#FFFFFF" stroke-width="0.6" points="31.998,29.62 11.196,33.483 11.196,3.37 31.998,3.37 "/>
<polyline fill="none" stroke="#FFFFFF" stroke-width="0.6" points="10.799,3.37 5.054,3.766 5.054,31.602 11.097,33.384 "/>
<polygon fill="none" stroke="#FFFFFF" stroke-width="0.6" points="27.937,13.672 15.951,14.366 15.951,9.215 27.937,9.215 "/>
<polygon fill="none" stroke="#FFFFFF" stroke-width="0.6" points="30.413,27.493 13.375,30.017 13.375,17.635 30.413,16.545 "/>
<polyline fill="none" stroke="#FFFFFF" stroke-width="0.6" points="11.593,33.583 1.907,35.112 0.3,33.879 0.3,2.083 1.687,0.3 
	26.946,0.3 26.946,3.172 "/>
<polyline fill="none" stroke="#FFFFFF" stroke-width="0.6" points="3.592,34.375 1.984,33.154 1.984,2.167 3.371,0.399 "/>
<circle fill="none" stroke="#FFFFFF" stroke-width="0.6" cx="48.243" cy="39.328" r="2.873"/>
<circle fill="none" stroke="#FFFFFF" stroke-width="0.6" cx="47.847" cy="39.03" r="4.458"/>
<path fill="none" stroke="#FFFFFF" stroke-width="0.6" d="M67.856,13.672V30.98c0,0,2.121,1.314,5.409,1.314
	c3.288,0,5.091-1.314,5.091-1.314V13.672"/>
<ellipse fill="none" stroke="#FFFFFF" stroke-width="0.6" cx="73.106" cy="13.661" rx="5.349" ry="0.626"/>
<path fill="none" stroke="#FFFFFF" stroke-width="0.6" d="M67.757,15.757c0,0.346,2.395,0.626,5.35,0.626
	c2.953,0,5.349-0.281,5.349-0.626"/>
<polyline fill="none" stroke="#FFFFFF" stroke-width="0.6" points="73.205,58.448 73.205,36.257 74.199,35.157 84.101,35.157 
	85.29,36.157 85.29,39.526 "/>
<polyline fill="none" stroke="#FFFFFF" stroke-width="0.6" points="71.751,58.448 71.751,36.076 72.746,34.976 "/>
<path fill="none" stroke="#FFFFFF" stroke-width="0.6" d="M104.209,58.448c-5.943-16.047-19.811-18.922-19.811-18.922
	s-3.863,0.891-3.467,5.646c0,0,9.608,2.975,13.471,13.276"/>
<path fill="none" stroke="#FFFFFF" stroke-width="0.6" d="M83.011,38.733c0,0-3.961-0.892-4.557,3.863"/>
<polygon fill="none" stroke="#FFFFFF" stroke-width="0.6" points="75.179,38.217 74.676,37.347 75.179,36.477 76.184,36.477 
	76.686,37.347 76.184,38.217 "/>
<polygon fill="none" stroke="#FFFFFF" stroke-width="0.6" points="64.168,34.201 63.666,33.33 64.168,32.461 65.172,32.461 
	65.675,33.33 65.172,34.201 "/>
<polygon fill="none" stroke="#FFFFFF" stroke-width="0.6" points="64.168,41.195 63.666,40.325 64.168,39.455 65.172,39.455 
	65.675,40.325 65.172,41.195 "/>
<polygon fill="none" stroke="#FFFFFF" stroke-width="0.6" points="82.799,38.217 82.296,37.347 82.799,36.477 83.804,36.477 
	84.306,37.347 83.804,38.217 "/>
<polygon fill="none" stroke="#FFFFFF" stroke-width="0.6" points="75.179,47.648 74.676,46.777 75.179,45.908 76.184,45.908 
	76.686,46.777 76.184,47.648 "/>
<defs>
	<filter id="Adobe_OpacityMaskFilter" filterUnits="userSpaceOnUse" x="31.203" y="27.934" width="4.76" height="16.053">
		<feFlood  style="flood-color:white;flood-opacity:1" result="back"/>
		<feBlend  in="SourceGraphic" in2="back" mode="normal"/>
	</filter>
</defs>
<mask maskUnits="userSpaceOnUse" x="31.203" y="27.934" width="4.76" height="16.053" id="SVGID_1_">
	<g filter="url(#Adobe_OpacityMaskFilter)">
		<rect x="30.534" y="32.935" width="2.662" height="6.517"/>
	</g>
</mask>
<ellipse mask="url(#SVGID_1_)" fill="none" stroke="#FFFFFF" stroke-width="0.6" cx="33.583" cy="35.959" rx="2.08" ry="7.726"/>
<path fill="none" stroke="#FFFFFF" stroke-width="0.6" d="M35.069,43.687c1.148,0,2.08-3.46,2.08-7.728
	c0-4.267-0.931-7.726-2.08-7.726"/>
<path fill="none" stroke="#FFFFFF" stroke-width="0.6" d="M36.852,43.687c1.148,0,2.08-3.46,2.08-7.728
	c0-4.267-0.932-7.726-2.08-7.726"/>
<path fill="none" stroke="#FFFFFF" stroke-width="0.6" d="M51.512,43.687c1.148,0,2.08-3.46,2.08-7.728
	c0-4.267-0.931-7.726-2.08-7.726"/>
<path fill="none" stroke="#FFFFFF" stroke-width="0.6" d="M51.908,35.959c0-4.267-0.931-7.726-2.08-7.726"/>
<polygon fill="none" stroke="#FFFFFF" stroke-width="0.6" stroke-linejoin="bevel" points="10.97,35.453 10.97,37.502 
	12.828,37.673 14.058,37.385 14.834,36.861 14.834,34.854 13.852,35.324 12.187,35.453 "/>
<polygon fill="none" stroke="#FFFFFF" stroke-width="0.6" stroke-linejoin="bevel" points="11.515,39.672 11.515,41.155 
	12.859,41.279 13.75,41.07 14.312,40.691 14.312,39.239 13.601,39.579 12.396,39.672 "/>
<polygon fill="none" stroke="#FFFFFF" stroke-width="0.6" points="14.365,35.025 11.546,35.025 11.546,33.787 14.365,33.189 "/>
<line fill="none" stroke="#FFFFFF" stroke-width="0.6" x1="11.674" y1="39.851" x2="11.674" y2="37.545"/>
<line fill="none" stroke="#FFFFFF" stroke-width="0.6" x1="14.194" y1="39.509" x2="14.194" y2="37.374"/>
<polygon fill="none" stroke="#FFFFFF" stroke-width="0.6" stroke-linejoin="bevel" points="15.539,34.684 15.539,36.734 
	17.396,36.904 18.626,36.616 19.403,36.093 19.403,34.086 18.421,34.556 16.756,34.684 "/>
<polygon fill="none" stroke="#FFFFFF" stroke-width="0.6" stroke-linejoin="bevel" points="16.083,38.903 16.083,40.387 
	17.428,40.51 18.318,40.303 18.88,39.924 18.88,38.471 18.169,38.811 16.964,38.903 "/>
<polygon fill="none" stroke="#FFFFFF" stroke-width="0.6" points="18.933,34.257 16.115,34.257 16.115,33.019 18.933,32.421 "/>
<line fill="none" stroke="#FFFFFF" stroke-width="0.6" x1="16.243" y1="39.082" x2="16.243" y2="36.776"/>
<line fill="none" stroke="#FFFFFF" stroke-width="0.6" x1="18.763" y1="38.74" x2="18.763" y2="36.605"/>
<polygon fill="none" stroke="#FFFFFF" stroke-width="0.6" stroke-linejoin="bevel" points="19.766,33.787 19.766,35.837 
	21.623,36.008 22.854,35.72 23.63,35.197 23.63,33.189 22.648,33.659 20.983,33.787 "/>
<polygon fill="none" stroke="#FFFFFF" stroke-width="0.6" stroke-linejoin="bevel" points="20.311,38.006 20.311,39.49 
	21.654,39.613 22.545,39.405 23.107,39.026 23.107,37.574 22.396,37.914 21.191,38.006 "/>
<polygon fill="none" stroke="#FFFFFF" stroke-width="0.6" points="23.161,33.36 20.342,33.36 20.342,32.122 23.161,31.524 "/>
<line fill="none" stroke="#FFFFFF" stroke-width="0.6" x1="20.471" y1="38.186" x2="20.471" y2="35.879"/>
<line fill="none" stroke="#FFFFFF" stroke-width="0.6" x1="22.99" y1="37.844" x2="22.99" y2="35.709"/>
<polygon fill="none" stroke="#FFFFFF" stroke-width="0.6" stroke-linejoin="bevel" points="23.779,33.062 23.779,35.111 
	25.637,35.282 26.868,34.994 27.644,34.471 27.644,32.464 26.662,32.934 24.997,33.062 "/>
<polygon fill="none" stroke="#FFFFFF" stroke-width="0.6" stroke-linejoin="bevel" points="24.324,37.281 24.324,38.765 
	25.668,38.888 26.559,38.68 27.121,38.301 27.121,36.849 26.41,37.188 25.205,37.281 "/>
<polygon fill="none" stroke="#FFFFFF" stroke-width="0.6" points="27.174,32.635 24.356,32.635 24.356,31.396 27.174,30.798 "/>
<line fill="none" stroke="#FFFFFF" stroke-width="0.6" x1="24.484" y1="37.459" x2="24.484" y2="35.154"/>
<line fill="none" stroke="#FFFFFF" stroke-width="0.6" x1="27.003" y1="37.117" x2="27.003" y2="34.982"/>
<line fill="none" stroke="#FFFFFF" stroke-width="0.6" x1="28.147" y1="33.804" x2="33.838" y2="33.804"/>
<line fill="none" stroke="#FFFFFF" stroke-width="0.6" x1="39.405" y1="33.711" x2="42.411" y2="33.711"/>
<line fill="none" stroke="#FFFFFF" stroke-width="0.6" x1="39.405" y1="37.891" x2="42.411" y2="37.891"/>
<line fill="none" stroke="#FFFFFF" stroke-width="0.6" x1="28.147" y1="38.166" x2="33.838" y2="38.166"/>
<line fill="none" stroke="#FFFFFF" stroke-width="0.6" x1="53.752" y1="33.804" x2="61.736" y2="33.804"/>
<line fill="none" stroke="#FFFFFF" stroke-width="0.6" x1="53.752" y1="38.166" x2="61.736" y2="38.166"/>
<line fill="none" stroke="#FFFFFF" stroke-width="0.6" x1="42.395" y1="38.753" x2="42.395" y2="33.475"/>
<line fill="none" stroke="#FFFFFF" stroke-width="0.6" x1="42.64" y1="30.615" x2="42.64" y2="26.969"/>
<line fill="none" stroke="#FFFFFF" stroke-width="0.6" x1="44.016" y1="30.615" x2="44.016" y2="26.969"/>
<line fill="none" stroke="#FFFFFF" stroke-width="0.6" x1="47.779" y1="30.615" x2="47.779" y2="26.969"/>
<line fill="none" stroke="#FFFFFF" stroke-width="0.6" x1="49.156" y1="30.615" x2="49.156" y2="26.969"/>
<line fill="none" stroke="#FFFFFF" stroke-width="0.6" x1="44.822" y1="35.74" x2="44.822" y2="33.475"/>
<line fill="none" stroke="#FFFFFF" stroke-width="0.6" x1="45.307" y1="33.516" x2="41.95" y2="33.516"/>
<line fill="none" stroke="#FFFFFF" stroke-width="0.6" x1="50.363" y1="33.516" x2="47.006" y2="33.516"/>
<line fill="none" stroke="#FFFFFF" stroke-width="0.6" x1="50.04" y1="35.335" x2="50.04" y2="33.475"/>
<line fill="none" stroke="#FFFFFF" stroke-width="0.6" x1="47.492" y1="34.566" x2="47.492" y2="33.475"/>
<rect x="42.005" y="30.641" fill="none" stroke="#FFFFFF" stroke-width="0.6" stroke-linejoin="bevel" width="3.182" height="1.683"/>
<rect x="42.495" y="25.349" fill="none" stroke="#FFFFFF" stroke-width="0.6" stroke-linejoin="bevel" width="1.774" height="1.224"/>
<rect x="47.634" y="25.349" fill="none" stroke="#FFFFFF" stroke-width="0.6" stroke-linejoin="bevel" width="1.713" height="1.224"/>
<rect x="46.93" y="30.641" fill="none" stroke="#FFFFFF" stroke-width="0.6" stroke-linejoin="bevel" width="3.182" height="1.683"/>
<polyline fill="none" stroke="#FFFFFF" stroke-width="0.6" points="70.271,42.709 63.183,42.709 62.009,41.718 62.009,31.761 
	63.197,30.671 67.977,30.671 "/>
<polyline fill="none" stroke="#FFFFFF" stroke-width="0.6" points="67.692,17.624 63.551,17.624 62.809,16.997 62.809,15.816 
	63.551,15.126 67.692,15.126 "/>
<polyline fill="none" stroke="#FFFFFF" stroke-width="0.6" points="78.298,17.624 82.44,17.624 83.182,16.997 83.182,15.816 
	82.44,15.126 78.298,15.126 "/>
<path fill="none" stroke="#FFFFFF" stroke-width="0.6" d="M65.262,35.166c0,0-0.363,2.361,1.181,3.543
	c1.544,1.181,5.178,2.09,5.178,2.09"/>
<line fill="none" stroke="#FFFFFF" stroke-width="0.6" x1="85.248" y1="47.43" x2="85.248" y2="58.448"/>
<line fill="none" stroke="#FFFFFF" stroke-width="0.6" x1="64.058" y1="17.28" x2="64.058" y2="15.506"/>
<line fill="none" stroke="#FFFFFF" stroke-width="0.6" x1="81.954" y1="17.28" x2="81.954" y2="15.506"/>
<path fill="none" stroke="#FFFFFF" stroke-width="0.6" d="M67.02,32.495c0,0,2.486,1.694,6.339,1.694
	c3.854,0,5.966-1.694,5.966-1.694"/>
<path fill="none" stroke="#FFFFFF" stroke-width="0.6" d="M83.579,16.171c0,0,5.506-0.367,4.588,2.386
	c-0.918,2.752-7.403-0.551-9.667,1.101"/>
<path fill="none" stroke="#FFFFFF" stroke-width="0.6" d="M48.644,24.919c0,0,0.367-2.569-1.346-3.058
	c-1.713-0.49-2.692,3.304-2.692,3.304"/>
<path fill="none" stroke="#FFFFFF" stroke-width="0.6" d="M43.504,24.859c0,0,0.061-2.631,1.04-2.631
	c0.979,0,0.856,0.856,0.856,0.856"/>
<line fill="none" stroke="#FFFFFF" stroke-width="0.6" x1="44.177" y1="28.836" x2="47.909" y2="28.836"/>
<path fill="none" stroke="#FFFFFF" stroke-width="0.6" d="M25.823,39.176c0,0,0.489,4.099,8.626,6.18
	c16.047,4.102,23.188-6.975,23.188-6.975"/>
<path fill="none" stroke="#FFFFFF" stroke-width="0.6" d="M22.091,39.939c0,0,0.542,4.259,9.556,6.42
	c17.776,4.262,25.685-7.245,25.685-7.245"/>
<path fill="none" stroke="#FFFFFF" stroke-width="0.6" d="M17.563,40.613c0,0,0.542,4.258,9.556,6.419
	c17.776,4.262,25.685-7.245,25.685-7.245"/>
<path fill="none" stroke="#FFFFFF" stroke-width="0.6" d="M13.036,41.531c0,0,0.566,4.158,9.556,6.419
	c14.978,3.767,23.421-4.737,23.421-4.737"/>
<path fill="none" stroke="#FFFFFF" stroke-width="0.6" d="M14.749,21.799c0.184,0,14.684-1.529,14.684-1.529"/>
<line fill="none" stroke="#FFFFFF" stroke-width="0.6" x1="17.013" y1="18.74" x2="17.013" y2="28.285"/>
<line fill="none" stroke="#FFFFFF" stroke-width="0.6" x1="20.011" y1="18.435" x2="20.011" y2="27.979"/>
<line fill="none" stroke="#FFFFFF" stroke-width="0.6" x1="22.581" y1="18.128" x2="22.581" y2="27.673"/>
<line fill="none" stroke="#FFFFFF" stroke-width="0.6" x1="25.211" y1="17.823" x2="25.211" y2="27.367"/>
<line fill="none" stroke="#FFFFFF" stroke-width="0.6" x1="27.842" y1="17.64" x2="27.842" y2="27.184"/>
<path fill="none" stroke="#FFFFFF" stroke-width="0.6" d="M14.749,25.654c0.184,0,14.684-1.652,14.684-1.652"/>
<polygon fill="none" stroke="#FFFFFF" stroke-width="0.6" points="3.418,7.761 3.223,7.422 3.418,7.083 3.81,7.083 4.005,7.422 
	3.81,7.761 "/>
<polygon fill="none" stroke="#FFFFFF" stroke-width="0.6" points="3.418,12.989 3.223,12.65 3.418,12.312 3.81,12.312 4.005,12.65 
	3.81,12.989 "/>
<polygon fill="none" stroke="#FFFFFF" stroke-width="0.6" points="3.418,18.435 3.223,18.095 3.418,17.756 3.81,17.756 
	4.005,18.095 3.81,18.435 "/>
<polygon fill="none" stroke="#FFFFFF" stroke-width="0.6" points="3.418,24.002 3.223,23.663 3.418,23.324 3.81,23.324 
	4.005,23.663 3.81,24.002 "/>
<polygon fill="none" stroke="#FFFFFF" stroke-width="0.6" points="3.418,29.02 3.223,28.68 3.418,28.34 3.81,28.34 4.005,28.68 
	3.81,29.02 "/>
<line fill="none" stroke="#FFFFFF" stroke-width="0.6" x1="79.253" y1="34.861" x2="79.253" y2="30.902"/>
</svg>
