<?xml version="1.0" encoding="utf-8"?>
<!-- Generator: Adobe Illustrator 14.0.0, SVG Export Plug-In . SVG Version: 6.00 Build 43363)  -->
<!DOCTYPE svg PUBLIC "-//W3C//DTD SVG 1.1//EN" "http://www.w3.org/Graphics/SVG/1.1/DTD/svg11.dtd">
<svg version="1.1" id="Layer_1" xmlns="http://www.w3.org/2000/svg" xmlns:xlink="http://www.w3.org/1999/xlink" x="0px" y="0px"
	 width="36.685px" height="35px" viewBox="0 0 36.685 35" enable-background="new 0 0 36.685 35" xml:space="preserve">
<g>
	<polygon fill="#055FA9" points="35.433,17.535 18.35,17.535 9.933,32.368 27.017,32.368 	"/>
	<polygon fill="#9FD9F4" points="35.433,17.535 18.349,17.535 9.933,2.701 27.017,2.701 	"/>
	<polygon fill="#38ACDF" points="9.913,32.368 18.329,17.535 9.912,2.701 1.287,17.639 	"/>
	<polygon opacity="0.8" fill="#FFFFFF" points="9.975,2.835 17.723,17.708 9.975,32.202 18.992,18.244 35.438,17.553 18.6,16.731 	
		"/>
	<linearGradient id="SVGID_1_" gradientUnits="userSpaceOnUse" x1="25.8706" y1="2.6714" x2="18.3706" y2="8.5049">
		<stop  offset="0" style="stop-color:#51B4E7"/>
		<stop  offset="1" style="stop-color:#9FD9F4"/>
	</linearGradient>
	<polygon fill="url(#SVGID_1_)" points="26.793,3.405 19.464,15.328 15.063,3.405 	"/>
	<linearGradient id="SVGID_2_" gradientUnits="userSpaceOnUse" x1="1.6846" y1="17.4268" x2="13.1763" y2="11.6809">
		<stop  offset="0" style="stop-color:#053F90"/>
		<stop  offset="1" style="stop-color:#38ACDF"/>
	</linearGradient>
	<polygon fill="url(#SVGID_2_)" points="1.728,17.514 16.093,17.514 8.914,6.521 	"/>
	<linearGradient id="SVGID_3_" gradientUnits="userSpaceOnUse" x1="18.5381" y1="32.4893" x2="18.2046" y2="21.6558">
		<stop  offset="0" style="stop-color:#1071BA"/>
		<stop  offset="1" style="stop-color:#055FA9"/>
	</linearGradient>
	<polygon fill="url(#SVGID_3_)" points="26.923,32.216 22.597,23.347 15.118,24.739 10.135,32.216 	"/>
</g>
</svg>
