<?xml version="1.0" encoding="utf-8"?>
<!-- Generator: Adobe Illustrator 14.0.0, SVG Export Plug-In . SVG Version: 6.00 Build 43363)  -->
<!DOCTYPE svg PUBLIC "-//W3C//DTD SVG 1.1//EN" "http://www.w3.org/Graphics/SVG/1.1/DTD/svg11.dtd">
<svg version="1.1" id="Layer_1" xmlns="http://www.w3.org/2000/svg" xmlns:xlink="http://www.w3.org/1999/xlink" x="0px" y="0px"
	 width="27.331px" height="26.076px" viewBox="0 0 27.331 26.076" enable-background="new 0 0 27.331 26.076" xml:space="preserve">
<path fill="#0656A2" d="M6.685,19.643c0.826-0.409,1.621-0.79,2.383-1.162c0.682,0.571,1.459,1.055,2.31,1.417
	c-0.138,0.764-0.462,2.365-0.462,2.365l4.172-1.813c0,0,0.952,0.068,1.593-0.156c0.484,0.609,0.973,1.214,1.463,1.83
	c0.735-0.549,1.735-1.757,1.735-1.757l3.083-3.354l-0.778-0.504l1.965-2.621l-3.017-3.293L22.401,8.7l-4.313-1.375l-3.113-3.726
	L14.31,4.97L8.401,3.668l-0.89,3.553L4.463,8.262l-0.625,5l2.073,1.454L6.685,19.643z M9.213,11.887c0,0,1.375-1,4.5,0.125
	c2.036,0.733,3.741,2.108,3.75,3.811L9.213,11.887z"/>
<linearGradient id="SVGID_1_" gradientUnits="userSpaceOnUse" x1="14.7178" y1="12.5239" x2="17.4902" y2="8.2993">
	<stop  offset="0" style="stop-color:#1278BB"/>
	<stop  offset="1" style="stop-color:#0656A2"/>
</linearGradient>
<path fill="url(#SVGID_1_)" d="M16.504,13.687c-0.049,0,2.839-3.657,2.78-4.267c-0.061-0.613-3.086-3.155-3.625-2.478
	c-0.539,0.681-2.131,4.962-2.131,4.962S15.527,12.613,16.504,13.687z"/>
<path fill="#1580C1" d="M5.341,12.762L4.69,16.954c0.487,0.953,1.134,1.858,1.994,2.686l1.017-3.784L5.341,12.762z"/>
<path fill="#1580C1" d="M12.546,18.867l-1.639,3.404c1.11,0.388,2.238,0.602,3.327,0.649c-0.02-0.061,2.229-3.314,2.229-3.314
	L12.546,18.867z"/>
<path fill="#1580C1" d="M20.922,18.658l-2.708,3.458c0.73-0.379,1.289-0.903,1.75-1.479l3.023-3.669L20.922,18.658z"/>
<g>
	<defs>
		<path id="SVGID_2_" d="M15.27,14.042c-2.86-0.733-5.028-3.466-4.542-5.515c0.491-2.053,2.965-2.625,5.322-1.801
			c2.361,0.819,4.069,2.708,4.08,4.676c0.008,1.604-1.329,2.839-3.374,2.839C16.291,14.241,15.795,14.181,15.27,14.042 M8.393,3.653
			c0.442,0.506,0.89,1.023,1.334,1.53C9.061,5.535,8.502,6.014,8.098,6.619C7.235,6.35,6.345,6.07,5.429,5.789
			c-0.533,0.723-0.878,1.576-1,2.512c1.017,0.282,2.025,0.57,2.985,0.84c0.03,0.816,0.264,1.662,0.685,2.477
			c-0.888,0.352-1.814,0.705-2.779,1.086c0.563,1.102,1.362,2.156,2.355,3.112c0.955-0.474,1.874-0.912,2.754-1.343
			c0.788,0.66,1.686,1.219,2.669,1.638c-0.16,0.882-0.322,1.791-0.496,2.741c1.283,0.449,2.586,0.696,3.844,0.75
			c0.1-0.924,0.186-1.812,0.27-2.672c0.925,0.027,1.769-0.104,2.51-0.362c0.56,0.703,1.124,1.403,1.691,2.114
			c0.843-0.438,1.54-1.001,2.073-1.667c-0.528-0.636-1.049-1.26-1.568-1.892c0.417-0.486,0.709-1.062,0.859-1.697
			c0.639,0.189,1.27,0.374,1.888,0.553c0.059-0.749-0.024-1.531-0.226-2.305c-0.563-0.185-1.135-0.371-1.721-0.563
			c-0.177-0.676-0.471-1.337-0.873-1.969c0.375-0.181,0.734-0.364,1.088-0.537c-0.501-0.688-1.088-1.333-1.748-1.928
			c-0.361,0.147-0.725,0.295-1.102,0.441c-0.613-0.527-1.313-1.015-2.081-1.417c0.019-0.386,0.033-0.773,0.05-1.148
			c-0.841-0.415-1.714-0.752-2.607-0.997c-0.045,0.374-0.094,0.76-0.145,1.152c-0.859-0.186-1.704-0.254-2.499-0.207
			c-0.411-0.461-0.824-0.92-1.229-1.381C10.127,3.175,9.22,3.348,8.393,3.653"/>
	</defs>
	<clipPath id="SVGID_3_">
		<use xlink:href="#SVGID_2_"  overflow="visible"/>
	</clipPath>
	
		<linearGradient id="SVGID_4_" gradientUnits="userSpaceOnUse" x1="71.9995" y1="811.2749" x2="72.293" y2="811.2749" gradientTransform="matrix(0 49.5294 49.5294 0 -40167.6563 -3561.0903)">
		<stop  offset="0" style="stop-color:#99D8F5"/>
		<stop  offset="0.0054" style="stop-color:#99D8F5"/>
		<stop  offset="1" style="stop-color:#3AC1EE"/>
	</linearGradient>
	<rect x="4.429" y="3.121" clip-path="url(#SVGID_3_)" fill="url(#SVGID_4_)" width="19.798" height="16.48"/>
</g>
</svg>
