<?xml version="1.0" encoding="utf-8"?>
<!-- Generator: Adobe Illustrator 14.0.0, SVG Export Plug-In . SVG Version: 6.00 Build 43363)  -->
<!DOCTYPE svg PUBLIC "-//W3C//DTD SVG 1.1//EN" "http://www.w3.org/Graphics/SVG/1.1/DTD/svg11.dtd">
<svg version="1.1" id="Layer_1" xmlns="http://www.w3.org/2000/svg" xmlns:xlink="http://www.w3.org/1999/xlink" x="0px" y="0px"
	 width="203.545px" height="74.546px" viewBox="0 0 203.545 74.546" enable-background="new 0 0 203.545 74.546"
	 xml:space="preserve">
<linearGradient id="SVGID_1_" gradientUnits="userSpaceOnUse" x1="101.3901" y1="12.3696" x2="101.5054" y2="14.5688">
	<stop  offset="0.72" style="stop-color:#1A97D2"/>
	<stop  offset="1" style="stop-color:#06519E"/>
</linearGradient>
<path fill="url(#SVGID_1_)" d="M109.232,5.446h4.133v20.979h-4.133v-9.201h-7.2v9.201h-4.151V5.446h4.151v7.915h7.2V5.446z
	 M55.534,26.426h11.743v-3.924h-7.676v-5.518h7.676v-3.838h-7.676V9.354h7.676V5.446H55.534V26.426z M142.951,9.385h3.816v17.041
	h4.151V9.385h3.917V5.446h-11.885V9.385z M21.725,5.446H17.59V22.83h-7.196V5.446H6.24v20.979h16.021v3.137h3.84V22.83h-4.377V5.446
	z M197.222,11.535c0,1.465-0.399,2.68-1.182,3.65c-0.781,0.973-1.852,1.644-3.191,2.028c-0.794,0.216-2.228,0.327-4.314,0.327v8.885
	h-4.098V5.446h4.34c2.351,0,4.048,0.215,5.08,0.64c1.043,0.422,1.864,1.102,2.464,2.051C196.92,9.084,197.222,10.215,197.222,11.535
	 M193.256,11.535c0-0.811-0.32-1.398-0.965-1.768c-0.465-0.275-1.336-0.414-2.603-0.414h-1.154v4.295h1.3
	c1.022,0,1.734-0.072,2.134-0.215c0.401-0.143,0.716-0.381,0.944-0.704C193.138,12.398,193.256,12.006,193.256,11.535"/>
<path fill="#0A5FA5" d="M90.575,37.789h2.153v1.049h-2.153V37.789z M67.025,35.254c0.636,0.627,0.952,1.382,0.952,2.279
	c0,0.887-0.311,1.639-0.938,2.253c-0.625,0.616-1.388,0.921-2.279,0.921c-0.937,0-1.71-0.313-2.332-0.945
	c-0.621-0.632-0.93-1.381-0.93-2.25c0-0.58,0.146-1.117,0.433-1.604c0.29-0.489,0.686-0.873,1.192-1.159
	c0.502-0.285,1.049-0.429,1.627-0.429C65.633,34.32,66.395,34.631,67.025,35.254 M66.794,37.524c0-0.578-0.202-1.069-0.602-1.474
	c-0.396-0.396-0.883-0.597-1.453-0.597c-0.576,0-1.06,0.196-1.454,0.589c-0.392,0.391-0.589,0.889-0.589,1.49
	c0,0.673,0.241,1.203,0.743,1.596c0.384,0.306,0.825,0.459,1.32,0.459c0.563,0,1.044-0.199,1.438-0.597
	C66.596,38.598,66.794,38.107,66.794,37.524 M22.015,37.063c0,0.346-0.06,0.634-0.173,0.871c-0.12,0.24-0.295,0.438-0.521,0.59
	c-0.227,0.162-0.465,0.265-0.705,0.311c-0.239,0.047-0.613,0.07-1.111,0.07v1.652h-1.198v-1.652c-0.521,0-0.951-0.047-1.282-0.152
	c-0.337-0.101-0.611-0.295-0.828-0.58c-0.214-0.287-0.321-0.644-0.321-1.072c0-0.404,0.086-0.748,0.26-1.027
	c0.171-0.276,0.416-0.482,0.732-0.616c0.31-0.138,0.797-0.199,1.439-0.199v-0.784h1.198v0.784h0.262
	C21.266,35.257,22.015,35.861,22.015,37.063 M18.307,36.326h-0.271c-0.415,0-0.695,0.066-0.832,0.195
	c-0.139,0.133-0.208,0.32-0.208,0.572c0,0.296,0.083,0.502,0.255,0.611c0.165,0.113,0.414,0.17,0.738,0.17h0.318V36.326z
	 M20.886,37.083c0-0.236-0.07-0.423-0.203-0.562c-0.137-0.129-0.408-0.195-0.83-0.195h-0.348v1.549h0.388
	c0.401,0,0.672-0.07,0.799-0.221C20.824,37.512,20.886,37.324,20.886,37.083 M72.385,36.766h-2.087v-2.293h-1.204v6.084h1.204
	v-2.672h2.087v2.672h1.2v-6.084h-1.2V36.766z M5.695,38.406v-3.934H4.504v6.084H5.54l2.329-3.809v3.809h1.188v-6.084H8.055
	L5.695,38.406z M78.293,36.766h-2.087v-2.293H75v6.084h1.206v-2.672h2.087v2.672h1.199v-6.084h-1.199V36.766z M33.669,35.254
	c0.167,0.272,0.259,0.6,0.259,0.986c0,0.426-0.116,0.773-0.341,1.055c-0.229,0.289-0.54,0.479-0.928,0.59
	c-0.229,0.061-0.647,0.094-1.253,0.094v2.578h-1.188v-6.084h1.26c0.685,0,1.174,0.062,1.471,0.184
	C33.254,34.781,33.492,34.978,33.669,35.254 M32.778,36.24c0-0.235-0.094-0.411-0.278-0.512c-0.138-0.082-0.392-0.121-0.758-0.121
	h-0.336v1.242h0.378c0.297,0,0.508-0.021,0.616-0.063c0.12-0.039,0.21-0.11,0.278-0.203C32.741,36.488,32.778,36.374,32.778,36.24
	 M13.766,36.766h-2.092v-2.293h-1.2v6.084h1.2v-2.672h2.092v2.672h1.196v-6.084h-1.196V36.766z M28.156,35.254
	c0.632,0.627,0.952,1.382,0.952,2.279c0,0.887-0.316,1.639-0.941,2.253c-0.628,0.616-1.387,0.921-2.28,0.921
	c-0.931,0-1.713-0.313-2.333-0.945c-0.616-0.632-0.928-1.381-0.928-2.25c0-0.58,0.142-1.117,0.429-1.604
	c0.297-0.489,0.684-0.873,1.194-1.159c0.502-0.285,1.044-0.429,1.631-0.429C26.761,34.32,27.518,34.631,28.156,35.254
	 M27.918,37.524c0-0.578-0.198-1.069-0.597-1.474c-0.4-0.396-0.886-0.597-1.455-0.597c-0.576,0-1.065,0.196-1.456,0.589
	c-0.394,0.391-0.594,0.889-0.594,1.49c0,0.673,0.254,1.203,0.749,1.596c0.383,0.306,0.824,0.459,1.321,0.459
	c0.562,0,1.041-0.199,1.438-0.597C27.721,38.598,27.918,38.107,27.918,37.524 M53.81,34.473h-1.193v5.038h-2.091v-5.038h-1.206
	v6.084h4.65v0.906h1.107v-1.952H53.81V34.473z M57.021,38.406v-3.934h-1.186v6.084h1.032l2.327-3.809v3.809h1.188v-6.084h-1.001
	L57.021,38.406z M46.007,34.473l2.397,6.084h-1.235l-0.481-1.253h-2.547l-0.51,1.253h-1.231l2.402-6.084H46.007z M46.24,38.174
	l-0.826-2.088l-0.831,2.088H46.24z M39.754,34.473l-1.46,4.243l-1.438-4.243H35.69l-1.076,6.084h1.156l0.684-3.846l1.311,3.846
	h1.049l1.324-3.846l0.667,3.846h1.146l-1.05-6.084H39.754z M86.133,35.254c0.637,0.627,0.953,1.382,0.953,2.279
	c0,0.887-0.313,1.639-0.941,2.253c-0.622,0.616-1.38,0.921-2.278,0.921c-0.933,0-1.712-0.313-2.329-0.945
	c-0.622-0.632-0.927-1.381-0.927-2.25c0-0.58,0.14-1.117,0.428-1.604c0.288-0.489,0.688-0.873,1.192-1.159
	c0.499-0.285,1.047-0.429,1.628-0.429C84.742,34.32,85.501,34.631,86.133,35.254 M85.898,37.524c0-0.578-0.198-1.069-0.6-1.474
	c-0.399-0.396-0.885-0.597-1.45-0.597c-0.58,0-1.064,0.196-1.455,0.589c-0.394,0.391-0.592,0.889-0.592,1.49
	c0,0.673,0.245,1.203,0.744,1.596c0.388,0.306,0.822,0.459,1.32,0.459c0.566,0,1.045-0.199,1.442-0.597
	C85.704,38.598,85.898,38.107,85.898,37.524 M162.328,38.406v-3.934h-1.195v6.084h1.038l2.327-3.809v3.809h1.191v-6.084h-1.004
	L162.328,38.406z M151.309,34.473l2.402,6.084h-1.238l-0.486-1.253h-2.544l-0.505,1.253h-1.239l2.404-6.084H151.309z
	 M151.543,38.174l-0.828-2.088l-0.832,2.088H151.543z M177.69,36.766h-2.09v-2.293h-1.204v6.084h1.204v-2.672h2.09v2.672h1.198
	v-6.084h-1.198V36.766z M159.116,34.473h-1.2v5.038h-2.088v-5.038h-1.204v6.084h4.647v0.906h1.11v-1.952h-1.266V34.473z
	 M172.332,35.254c0.632,0.627,0.951,1.382,0.951,2.279c0,0.887-0.31,1.639-0.947,2.253c-0.619,0.616-1.382,0.921-2.273,0.921
	c-0.936,0-1.711-0.313-2.33-0.945c-0.62-0.632-0.932-1.381-0.932-2.25c0-0.58,0.146-1.117,0.437-1.604
	c0.285-0.489,0.681-0.873,1.182-1.159c0.509-0.285,1.055-0.429,1.638-0.429C170.938,34.32,171.694,34.631,172.332,35.254
	 M172.094,37.524c0-0.578-0.201-1.069-0.6-1.474c-0.396-0.396-0.883-0.597-1.449-0.597c-0.576,0-1.063,0.196-1.455,0.589
	c-0.394,0.391-0.591,0.889-0.591,1.49c0,0.673,0.248,1.203,0.747,1.596c0.378,0.306,0.821,0.459,1.316,0.459
	c0.563,0,1.041-0.199,1.438-0.597C171.894,38.598,172.094,38.107,172.094,37.524 M190.971,40.557h1.183v-6.084h-1.183V40.557z
	 M183.593,36.766h-2.085v-2.293h-1.202v6.084h1.202v-2.672h2.085v2.672h1.201v-6.084h-1.201V36.766z M189.744,37.568
	c0.247,0.316,0.362,0.695,0.362,1.133c0,0.418-0.101,0.773-0.307,1.061c-0.206,0.291-0.447,0.496-0.721,0.614
	c-0.275,0.12-0.646,0.181-1.123,0.181h-1.743v-6.084h1.189v2.293h0.257c0.489,0,0.903,0.059,1.237,0.168
	C189.222,37.05,189.504,37.262,189.744,37.568 M188.932,38.666c0-0.574-0.43-0.861-1.284-0.861h-0.245v1.645h0.292
	c0.495,0,0.821-0.059,0.99-0.178C188.85,39.153,188.932,38.955,188.932,38.666 M196.479,37.416l1.981-2.943h-1.338l-1.319,1.951
	l-1.296-1.951h-1.347l1.979,2.943l-2.107,3.141h1.345l1.427-2.143l1.444,2.143h1.333L196.479,37.416z M107.676,35.254
	c0.635,0.627,0.955,1.382,0.955,2.279c0,0.887-0.316,1.639-0.944,2.253c-0.624,0.616-1.382,0.921-2.274,0.921
	c-0.939,0-1.716-0.313-2.333-0.945c-0.618-0.632-0.928-1.381-0.928-2.25c0-0.58,0.142-1.117,0.428-1.604
	c0.292-0.489,0.688-0.873,1.194-1.159c0.499-0.285,1.043-0.429,1.631-0.429C106.283,34.32,107.041,34.631,107.676,35.254
	 M107.444,37.524c0-0.578-0.202-1.069-0.598-1.474c-0.401-0.396-0.888-0.597-1.458-0.597c-0.574,0-1.061,0.196-1.455,0.589
	c-0.396,0.391-0.586,0.889-0.586,1.49c0,0.673,0.244,1.203,0.74,1.596c0.385,0.306,0.825,0.459,1.324,0.459
	c0.565,0,1.04-0.199,1.438-0.597C107.243,38.598,107.444,38.107,107.444,37.524 M122.23,34.473l-1.46,4.243l-1.445-4.243h-1.157
	l-1.081,6.084h1.162l0.681-3.846l1.308,3.846h1.048l1.324-3.846l0.678,3.846h1.143l-1.056-6.084H122.23z M114.419,34.473
	l-1.465,4.243l-1.44-4.243h-1.161l-1.081,6.084h1.16l0.686-3.846l1.307,3.846h1.048l1.331-3.846l0.668,3.846h1.143l-1.047-6.084
	H114.419z M147.145,34.473h-1.432l-1.686,2.091v-2.091h-1.198v6.084h1.198v-2.699l1.923,2.699h1.411l-2.393-3.372L147.145,34.473z
	 M101.398,34.473h-1.428l-1.691,2.091v-2.091h-1.198v6.084h1.198v-2.699l1.925,2.699h1.405l-2.387-3.372L101.398,34.473z
	 M138.036,38.406v-3.934h-1.19v6.084h1.032l2.333-3.809v3.809h1.186v-6.084h-1.002L138.036,38.406z M134.232,36.766h-2.088v-2.293
	h-1.204v6.084h1.204v-2.672h2.088v2.672h1.199v-6.084h-1.199V36.766z M127.717,37.862l-1.47-3.39h-1.342l2.217,4.695
	c-0.121,0.145-0.228,0.252-0.315,0.314c-0.09,0.061-0.202,0.094-0.336,0.094c-0.304,0-0.606-0.176-0.915-0.531l-0.781,0.768
	c0.516,0.59,1.086,0.881,1.698,0.881c0.383,0,0.739-0.123,1.072-0.376c0.337-0.253,0.649-0.749,0.934-1.495l1.658-4.35h-1.216
	L127.717,37.862z"/>
<linearGradient id="SVGID_2_" gradientUnits="userSpaceOnUse" x1="100.3604" y1="53.4102" x2="100.4202" y2="54.5518">
	<stop  offset="0.71" style="stop-color:#6CB9E3"/>
	<stop  offset="1" style="stop-color:#2187C6"/>
</linearGradient>
<path fill="url(#SVGID_2_)" d="M172.301,48.962h3.453V69.94h-4.094V56.807l-8.031,13.134h-3.567V48.962h4.096v13.564L172.301,48.962
	z M187.03,46.767v7.401l4.442-7.401H187.03z M192.871,48.962l-8.141,13.564V48.962h-4.1V69.94h3.57l8.032-13.134V69.94h4.093V48.962
	H192.871z M106.152,48.962L97.863,69.94h4.341l6.058-15.419l5.947,15.419h4.374l-8.278-20.979H106.152z M18.851,69.94h11.74v-3.923
	h-7.678v-5.517h7.678V56.66h-7.678v-3.791h7.678v-3.907h-11.74V69.94z M51.268,48.962h-4.609l-4.549,6.714l-4.503-6.714h-4.607
	l6.816,10.151L32.548,69.94h4.639l4.923-7.377l4.972,7.377h4.607l-7.27-10.827L51.268,48.962z M66.104,56.876h-7.195v-7.914h-4.156
	V69.94h4.156v-9.203h7.195v9.203h4.138V48.962h-4.138V56.876z M146.202,69.94h4.05V52.869h6.626v-3.907h-10.676V69.94z
	 M4.135,52.896h3.821V69.94h4.15V52.896h3.918v-3.935H4.135V52.896z M93.148,51.654c2.188,2.156,3.283,4.771,3.283,7.856
	c0,3.064-1.076,5.656-3.236,7.773c-2.16,2.126-4.787,3.18-7.866,3.18c-3.221,0-5.902-1.081-8.04-3.266
	c-2.137-2.179-3.203-4.758-3.203-7.751c0-2.01,0.505-3.854,1.496-5.539c0.993-1.682,2.358-3.017,4.095-4
	c1.737-0.982,3.618-1.475,5.622-1.475C88.347,48.434,90.959,49.51,93.148,51.654 M92.337,59.486c0-2.001-0.691-3.694-2.065-5.072
	c-1.369-1.381-3.047-2.072-5.009-2.072c-1.99,0-3.667,0.678-5.017,2.025c-1.356,1.347-2.034,3.066-2.034,5.144
	c0,2.32,0.849,4.158,2.561,5.508c1.327,1.061,2.841,1.581,4.557,1.581c1.948,0,3.595-0.683,4.956-2.052
	C91.652,63.176,92.337,61.489,92.337,59.486 M139.076,51.654c2.186,2.156,3.28,4.771,3.28,7.856c0,3.064-1.078,5.656-3.241,7.773
	c-2.154,2.126-4.779,3.18-7.857,3.18c-3.221,0-5.906-1.081-8.039-3.266c-2.139-2.179-3.206-4.758-3.206-7.751
	c0-2.01,0.495-3.854,1.493-5.539c0.995-1.682,2.359-3.017,4.102-4c1.736-0.982,3.614-1.475,5.617-1.475
	C134.271,48.434,136.889,49.51,139.076,51.654 M138.262,59.486c0-2.001-0.688-3.694-2.063-5.072
	c-1.376-1.381-3.044-2.072-5.011-2.072c-1.993,0-3.665,0.678-5.017,2.025c-1.357,1.347-2.038,3.066-2.038,5.144
	c0,2.32,0.853,4.158,2.56,5.508c1.326,1.061,2.846,1.581,4.564,1.581c1.94,0,3.593-0.683,4.957-2.052
	C137.574,63.176,138.262,61.489,138.262,59.486"/>
</svg>
