<?xml version="1.0" encoding="utf-8"?>
<!-- Generator: Adobe Illustrator 14.0.0, SVG Export Plug-In . SVG Version: 6.00 Build 43363)  -->
<!DOCTYPE svg PUBLIC "-//W3C//DTD SVG 1.1//EN" "http://www.w3.org/Graphics/SVG/1.1/DTD/svg11.dtd">
<svg version="1.1" id="Layer_1" xmlns="http://www.w3.org/2000/svg" xmlns:xlink="http://www.w3.org/1999/xlink" x="0px" y="0px"
	 width="68.5px" height="28.5px" viewBox="0 0 68.5 28.5" enable-background="new 0 0 68.5 28.5" xml:space="preserve">
<g>
	<linearGradient id="SVGID_1_" gradientUnits="userSpaceOnUse" x1="12.8447" y1="26.6899" x2="12.8447" y2="2.7744">
		<stop  offset="0.2848" style="stop-color:#008BC9"/>
		<stop  offset="0.8121" style="stop-color:#1C9ED7"/>
	</linearGradient>
	<path fill="url(#SVGID_1_)" d="M1.574,22.251c2.36,0,3.734-1.268,4.474-7.467l1.374-12.01h16.693v23.493H19.08V7.177h-7.15
		l-0.916,7.96C9.887,24.893,6.364,26.69,1.574,26.69V22.251z"/>
	<linearGradient id="SVGID_2_" gradientUnits="userSpaceOnUse" x1="37.0371" y1="26.2671" x2="37.0371" y2="2.7744">
		<stop  offset="0.2848" style="stop-color:#008BC9"/>
		<stop  offset="0.8121" style="stop-color:#1C9ED7"/>
	</linearGradient>
	<path fill="url(#SVGID_2_)" d="M28.725,26.267V2.774H45.35v4.402H33.727v4.966h11.377v4.403H33.727v5.318H45.35v4.403H28.725z"/>
	<linearGradient id="SVGID_3_" gradientUnits="userSpaceOnUse" x1="57.1807" y1="26.2671" x2="57.1807" y2="2.7744">
		<stop  offset="0.2848" style="stop-color:#008BC9"/>
		<stop  offset="0.8121" style="stop-color:#1C9ED7"/>
	</linearGradient>
	<path fill="url(#SVGID_3_)" d="M54.68,26.267V7.177h-6.868V2.774H66.55v4.402h-6.833v19.09H54.68z"/>
</g>
</svg>
